<svg width="53" height="64" viewBox="0 0 53 64" fill="none" xmlns="http://www.w3.org/2000/svg">
<path fill-rule="evenodd" clip-rule="evenodd" d="M26.5 0C16.8097 0 8.95426 7.86901 8.95426 17.5759C8.95426 25.5899 14.3087 32.3512 21.6294 34.4658C15.8501 35.1712 10.8931 37.2189 7.15889 40.9054C2.40625 45.5974 0 52.5822 0 61.697C0 62.9692 1.02936 64 2.29909 64C3.56887 64 4.59818 62.9692 4.59818 61.697C4.59818 53.3575 6.79001 47.7366 10.3865 44.186C13.9898 40.6288 19.3691 38.7881 26.4997 38.7881C33.6304 38.7881 39.0099 40.6288 42.6134 44.1861C46.2097 47.7366 48.4018 53.3575 48.4018 61.697C48.4018 62.9692 49.4308 64 50.7009 64C51.9705 64.0005 53 62.9692 53 61.6974C53 52.5822 50.5935 45.5974 45.8409 40.9053C42.1067 37.2189 37.1496 35.1713 31.3704 34.4658C38.6909 32.3513 44.0456 25.59 44.0456 17.5759C44.0456 7.86901 36.1902 0 26.5 0ZM13.5524 17.5759C13.5524 10.4129 19.3492 4.6061 26.5 4.6061C33.6507 4.6061 39.4475 10.4129 39.4475 17.5759C39.4475 24.7389 33.6507 30.5457 26.5 30.5457C19.3492 30.5457 13.5524 24.7389 13.5524 17.5759Z" fill="black"/>
</svg>